<?xml version="1.0" standalone="no"?>
<!DOCTYPE svg PUBLIC "-//W3C//DTD SVG 20010904//EN"
 "http://www.w3.org/TR/2001/REC-SVG-20010904/DTD/svg10.dtd">
<svg version="1.0" xmlns="http://www.w3.org/2000/svg"
 width="140.000000pt" height="140.000000pt" viewBox="0 0 140.000000 140.000000"
 preserveAspectRatio="xMidYMid meet">
<metadata>
Created by potrace 1.13, written by Peter Selinger 2001-2015
</metadata>
<g transform="translate(0.000000,140.000000) scale(0.100000,-0.100000)"
fill="#FFF" stroke="#000">
<path d="M408 1197 c-165 -96 -278 -167 -278 -176 0 -8 58 -117 130 -241 72
-125 130 -231 130 -237 0 -5 -58 -43 -130 -84 -76 -43 -130 -80 -130 -89 1
-17 535 -330 564 -330 9 0 140 71 291 157 207 119 275 163 275 177 0 10 -59
123 -132 249 -73 127 -128 232 -123 234 30 11 259 151 262 160 3 9 -560 344
-575 342 -4 0 -132 -73 -284 -162z m412 -104 c69 -120 126 -220 128 -224 1 -3
-54 -39 -124 -79 -95 -54 -130 -70 -144 -64 -73 35 -498 290 -492 296 13 13
487 286 497 287 6 1 67 -97 135 -216z m208 37 c100 -58 181 -108 179 -112 -4
-13 -222 -136 -229 -129 -8 7 -228 391 -228 398 0 3 22 -8 48 -24 27 -15 131
-75 230 -133z m-568 -316 c185 -107 201 -119 184 -131 -33 -25 -215 -126 -218
-122 -4 4 -209 358 -228 392 -10 20 -10 20 25 0 19 -12 126 -74 237 -139z
m628 -188 c62 -109 112 -199 110 -201 -5 -5 -463 264 -461 271 2 11 217 133
228 130 6 -1 61 -92 123 -200z m-139 -99 c134 -78 243 -147 242 -152 -2 -11
-470 -284 -487 -285 -16 0 -259 429 -248 440 14 14 228 138 239 139 6 0 120
-64 254 -142z m-373 -297 c40 -69 71 -126 69 -128 -4 -4 -465 261 -465 268 0
3 53 35 117 72 l117 67 45 -77 c24 -42 77 -133 117 -202z"/>
</g>
</svg>
